<?xml version="1.0" encoding="utf-8"?>

<!DOCTYPE svg PUBLIC "-//W3C//DTD SVG 1.1//EN" "http://www.w3.org/Graphics/SVG/1.1/DTD/svg11.dtd">
<!-- Uploaded to: SVG Repo, www.svgrepo.com, Generator: SVG Repo Mixer Tools -->
<svg height="800px" width="800px" version="1.1" id="_x32_" xmlns="http://www.w3.org/2000/svg" xmlns:xlink="http://www.w3.org/1999/xlink" 
	 viewBox="0 0 512 512"  xml:space="preserve">
<style type="text/css">
	.st0{fill:#000000;}
</style>
<g>
	<path class="st0" d="M316.275,326.914c-1.545-14.858,0.59-29.846,3.006-40.885c9.592-10.133,17.803-25.214,26.268-49.096
		c12.748-4.676,25.696-15.472,31.703-42.072c2.77-12.253-2.041-23.582-10.35-31.74c6.022-20.216,29.73-113.881-41.494-132.874
		C301.724,0.641,280.995,1.824,245.466,5.377c-17.674,1.766-20.185,5.524-33.752,3.553c-15.559-2.263-28.182-6.985-31.977-8.883
		c-2.186-1.096-22.705,17.113-28.424,31.977c-18.11,47.087-13.244,79.381-8.641,103.806c-0.154,2.501-0.359,4.994-0.359,7.522
		l4.222,17.893c0.008,0.184-0.004,0.361,0.004,0.545c-9.18,8.23-14.715,20.133-11.791,33.073
		c6.01,26.612,18.967,37.403,31.718,42.077c8.459,23.864,16.662,38.938,26.248,49.072c2.418,11.04,4.554,26.036,3.01,40.904
		c-6.469,62.273-137.504,29.471-137.504,138.814c0,16.862,56.506,46.271,197.779,46.271c141.27,0,197.777-29.409,197.777-46.271
		C453.778,356.386,322.743,389.188,316.275,326.914z"/>
</g>
</svg>